HIERARCHY
ROOT Pelvis
{
	OFFSET 0.000000 0.000000 0.000000
	CHANNELS 6 Xposition Yposition Zposition Xrotation Yrotation Zrotation
	JOINT LeftUpLeg_virtual
	{
		OFFSET 0.000000 0.000000 0.000000
		CHANNELS 3 Xrotation Yrotation Zrotation
		JOINT LeftUpLeg
		{
			OFFSET 18.735201 -5.666702 -4.541200
			CHANNELS 3 Xrotation Yrotation Zrotation
			JOINT LeftLeg
			{
				OFFSET -0.021200 -31.938179 0.493100
				CHANNELS 3 Xrotation Yrotation Zrotation
				JOINT LeftFoot
				{
					OFFSET 0.021200 -31.938179 -4.336299
					CHANNELS 3 Xrotation Yrotation Zrotation
					JOINT LeftToeBase
					{
						OFFSET 0.943001 -26.722000 15.023500
						CHANNELS 3 Xrotation Yrotation Zrotation
						End Site
						{
							OFFSET 0 0 0
						}
					}
				}
			}
		}
	}
	JOINT RightUpLeg_virtual
	{
		OFFSET 0.000000 0.000000 0.000000
		CHANNELS 3 Xrotation Yrotation Zrotation
		JOINT RightUpLeg
		{
			OFFSET -18.735201 -5.666702 -4.541200
			CHANNELS 3 Xrotation Yrotation Zrotation
			JOINT RightLeg
			{
				OFFSET 0.018946 -31.938133 0.493100
				CHANNELS 3 Xrotation Yrotation Zrotation
				JOINT RightFoot
				{
					OFFSET -0.018946 -31.938126 -4.336299
					CHANNELS 3 Xrotation Yrotation Zrotation
					JOINT RightToeBase
					{
						OFFSET -0.943001 -26.722004 15.023500
						CHANNELS 3 Xrotation Yrotation Zrotation
						End Site
						{
							OFFSET 0 0 0
						}
					}
				}
			}
		}
	}
	JOINT Hips_virtual
	{
		OFFSET 0.000000 0.000000 0.000000
		CHANNELS 3 Xrotation Yrotation Zrotation
		JOINT Hips
		{
			OFFSET -0.000000 -0.000000 -0.000000
			CHANNELS 3 Xrotation Yrotation Zrotation
			JOINT Spine
			{
				OFFSET 0.000000 10.199997 -0.299500
				CHANNELS 3 Xrotation Yrotation Zrotation
				JOINT Spine1
				{
					OFFSET 0.000000 11.900002 -1.516600
					CHANNELS 3 Xrotation Yrotation Zrotation
					JOINT Spine2
					{
						OFFSET 0.000000 13.600006 -2.842500
						CHANNELS 3 Xrotation Yrotation Zrotation
						JOINT Neck_virtual
						{
							OFFSET 0.000000 0.000000 0.000000
							CHANNELS 3 Xrotation Yrotation Zrotation
							JOINT Neck
							{
								OFFSET 0.000000 9.624100 -2.890100
								CHANNELS 3 Xrotation Yrotation Zrotation
								JOINT Head
								{
									OFFSET 0.000000 14.068802 -1.351900
									CHANNELS 3 Xrotation Yrotation Zrotation
									End Site
									{
										OFFSET 0 0 0
									}
								}
							}
						}
						JOINT LeftShoulder_virtual
						{
							OFFSET 0.000000 0.000000 0.000000
							CHANNELS 3 Xrotation Yrotation Zrotation
							JOINT LeftShoulder
							{
								OFFSET 15.263000 10.923401 -0.547700
								CHANNELS 3 Xrotation Yrotation Zrotation
								JOINT LeftArm
								{
									OFFSET 25.438599 -2.830597 -13.032500
									CHANNELS 3 Xrotation Yrotation Zrotation
									JOINT LeftForeArm
									{
										OFFSET 29.960503 0.000000 0.000000
										CHANNELS 3 Xrotation Yrotation Zrotation
										JOINT LeftHand
										{
											OFFSET 27.849251 0.000000 0.000000
											CHANNELS 3 Xrotation Yrotation Zrotation
											End Site
											{
												OFFSET 0 0 0
											}
										}
									}
								}
							}
						}
						JOINT RightShoulder_virtual
						{
							OFFSET 0.000000 0.000000 0.000000
							CHANNELS 3 Xrotation Yrotation Zrotation
							JOINT RightShoulder
							{
								OFFSET -15.263000 10.923401 -0.547700
								CHANNELS 3 Xrotation Yrotation Zrotation
								JOINT RightArm
								{
									OFFSET -25.438599 -2.830597 -13.032500
									CHANNELS 3 Xrotation Yrotation Zrotation
									JOINT RightForeArm
									{
										OFFSET -29.960503 0.000000 0.000000
										CHANNELS 3 Xrotation Yrotation Zrotation
										JOINT RightHand
										{
											OFFSET -27.849251 0.000000 0.000000
											CHANNELS 3 Xrotation Yrotation Zrotation
											End Site
											{
												OFFSET 0 0 0
											}
										}
									}
								}
							}
						}
					}
				}
			}
		}
	}
}
MOTION
Frames: 12
Frame Time: 0.03333333
-4.501606 82.991974 1.603767 0.000000 0.000000 0.000000 2.242294 -55.905904 7.097819 -38.606951 9.722658 30.090211 45.599719 -9.659597 -12.250668 -11.503628 -3.963588 -11.169804 0.000000 0.000000 0.000000 1.603135 -54.858765 6.432347 -33.883479 -5.928543 -30.792480 52.334982 4.364502 -7.200399 -24.720150 1.128890 26.049447 0.000000 0.000000 0.000000 1.979307 -55.104197 7.154393 -0.992180 -1.251749 -1.140172 13.153560 -0.576936 -2.439240 8.263313 0.659240 -5.303868 0.000000 0.000000 0.000000 8.756911 0.571813 -5.414631 -4.448410 5.279640 1.630261 0.000000 0.000000 0.000000 8.860291 0.604856 -5.931683 -5.282388 -14.611887 -2.607676 -25.215050 8.893132 -37.949979 -0.194986 -43.232710 0.257313 0.000000 0.000000 0.000000 8.991981 1.117140 -5.352719 -5.400890 10.449693 2.196786 -37.914462 -29.079650 28.017890 -155.505348 63.601690 156.474115 0.000000 0.000000 0.000000 
-4.477408 83.005440 1.770016 0.000000 0.000000 0.000000 2.313160 -55.929195 7.151270 -38.541023 9.731274 29.950291 45.658271 -9.590549 -12.268738 -11.719462 -3.904950 -11.024301 0.000000 0.000000 0.000000 1.680728 -54.844011 6.459654 -33.686247 -5.820126 -30.816092 52.031579 4.401953 -7.236783 -24.602236 1.107710 26.113420 0.000000 0.000000 0.000000 2.013464 -55.094789 7.162775 -1.018870 -1.220855 -1.189358 13.174258 -0.542149 -2.462264 8.244043 0.629597 -5.310846 0.000000 0.000000 0.000000 8.796001 0.545919 -5.418519 -4.457462 5.284306 1.643202 0.000000 0.000000 0.000000 8.809172 0.563032 -5.923568 -5.277703 -14.794147 -2.474652 -25.470916 8.616436 -37.885488 -0.162379 -43.258033 0.467350 0.000000 0.000000 0.000000 8.954616 1.096512 -5.360506 -5.375446 10.603887 2.210188 -37.837083 -29.310493 28.587292 -155.734829 64.018844 156.349901 0.000000 0.000000 0.000000 
-4.392937 83.043266 2.104015 0.000000 0.000000 0.000000 2.383419 -55.969090 7.197380 -38.527277 9.868644 29.678231 45.933603 -9.506682 -12.314335 -12.077713 -3.822091 -10.652351 0.000000 0.000000 0.000000 1.755200 -54.867931 6.488879 -33.390257 -5.749982 -31.060743 51.368159 4.530869 -7.234315 -24.271535 1.105638 26.391060 0.000000 0.000000 0.000000 2.010744 -55.101732 7.146234 -1.043449 -1.214018 -1.253038 13.137957 -0.544900 -2.523683 8.226385 0.570414 -5.296031 0.000000 0.000000 0.000000 8.827740 0.502667 -5.399277 -4.429116 5.257588 1.672839 0.000000 0.000000 0.000000 8.750709 0.504283 -5.889008 -5.302437 -14.997560 -2.498796 -25.878146 8.321581 -37.538699 -0.118833 -42.960497 0.817376 0.000000 0.000000 0.000000 8.895058 1.053333 -5.350771 -5.350258 10.763646 2.428558 -37.894736 -29.715213 29.085671 -156.076257 64.807984 156.025426 0.000000 0.000000 0.000000 
-4.246932 83.095970 2.590012 0.000000 0.000000 0.000000 2.447434 -56.048129 7.233091 -38.555902 10.087898 29.278098 46.414376 -9.416466 -12.365848 -12.549390 -3.734718 -10.075840 0.000000 0.000000 0.000000 1.830362 -54.954616 6.523131 -32.997767 -5.754188 -31.497301 50.342773 4.723397 -7.180214 -23.790717 1.107974 26.842988 0.000000 0.000000 0.000000 1.994844 -55.156701 7.120914 -1.043548 -1.213104 -1.263117 13.060526 -0.586543 -2.605014 8.209590 0.486459 -5.265516 0.000000 0.000000 0.000000 8.836518 0.444291 -5.365474 -4.369313 5.192979 1.724524 0.000000 0.000000 0.000000 8.695531 0.426413 -5.843527 -5.354980 -15.193884 -2.698715 -26.411010 8.071398 -36.993251 -0.039820 -42.345325 1.319448 0.000000 0.000000 0.000000 8.831150 0.989999 -5.335391 -5.321277 10.933901 2.802761 -37.960436 -30.161607 29.599284 -156.342497 66.063038 155.339662 0.000000 0.000000 0.000000 
-4.042188 83.152412 3.205139 0.000000 0.000000 0.000000 2.519351 -56.208239 7.265909 -38.579384 10.361143 28.758952 47.055253 -9.327561 -12.399125 -13.125906 -3.659200 -9.346489 0.000000 0.000000 0.000000 1.921330 -55.127017 6.569423 -32.506079 -5.830625 -32.081894 48.967771 4.974796 -7.072862 -23.145901 1.131056 27.461827 0.000000 0.000000 0.000000 2.001950 -55.289832 7.109929 -1.021096 -1.171353 -1.232089 12.968414 -0.656693 -2.701292 8.194054 0.383206 -5.236063 0.000000 0.000000 0.000000 8.818560 0.365513 -5.332348 -4.282518 5.082946 1.801473 0.000000 0.000000 0.000000 8.634753 0.329568 -5.804726 -5.443238 -15.367401 -3.051075 -27.029439 7.884098 -36.363166 0.093160 -41.616486 1.982715 0.000000 0.000000 0.000000 8.763024 0.906010 -5.324700 -5.285540 11.114740 3.317379 -37.884368 -30.432430 30.239751 -156.347005 67.826791 154.111088 0.000000 0.000000 0.000000 
-3.787762 83.203743 3.952774 0.000000 0.000000 0.000000 2.618157 -56.469887 7.308198 -38.546097 10.677735 28.141542 47.761826 -9.236464 -12.405160 -13.806743 -3.612092 -8.545193 0.000000 0.000000 0.000000 2.044965 -55.382507 6.629722 -31.950197 -5.954023 -32.780407 47.303291 5.277354 -6.920624 -22.304406 1.207195 28.254650 0.000000 0.000000 0.000000 2.066640 -55.514569 7.132472 -0.990966 -1.082671 -1.207406 12.882852 -0.750653 -2.805460 8.176153 0.266195 -5.218379 0.000000 0.000000 0.000000 8.773623 0.270910 -5.310725 -4.174709 4.918993 1.903963 0.000000 0.000000 0.000000 8.562349 0.219859 -5.785705 -5.571329 -15.509959 -3.532895 -27.656375 7.822053 -35.718918 0.329560 -41.119412 2.824985 0.000000 0.000000 0.000000 8.684224 0.807033 -5.325567 -5.247435 11.319690 3.948026 -37.568773 -30.325227 30.983954 -155.953108 70.022935 152.245504 0.000000 0.000000 0.000000 
-3.503096 83.253914 4.801212 0.000000 0.000000 0.000000 2.749394 -56.812909 7.361315 -38.429014 11.046979 27.447829 48.454352 -9.125222 -12.396811 -14.577398 -3.599072 -7.721541 0.000000 0.000000 0.000000 2.207219 -55.696723 6.704321 -31.371954 -6.105413 -33.565175 45.406169 5.608628 -6.719484 -21.255038 1.347398 29.175054 0.000000 0.000000 0.000000 2.187486 -55.830704 7.180896 -0.975490 -0.999411 -1.217606 12.803324 -0.861488 -2.919126 8.148597 0.146887 -5.216063 0.000000 0.000000 0.000000 8.699007 0.178024 -5.299085 -4.042156 4.692153 2.024363 0.000000 0.000000 0.000000 8.472637 0.110251 -5.783070 -5.744814 -15.622818 -4.112617 -28.193388 7.900677 -35.061502 0.693735 -41.163576 3.850839 0.000000 0.000000 0.000000 8.584084 0.709534 -5.339970 -5.223113 11.549967 4.685797 -37.049620 -29.771606 31.689294 -154.929126 72.567160 149.573070 0.000000 0.000000 0.000000 
-3.191163 83.308113 5.732098 0.000000 0.000000 0.000000 2.906281 -57.191059 7.414789 -38.244347 11.474896 26.711816 49.113261 -8.968383 -12.389443 -15.362789 -3.595905 -6.879701 0.000000 0.000000 0.000000 2.402961 -56.039103 6.779144 -30.770214 -6.289099 -34.397741 43.296788 5.928686 -6.463976 -20.055411 1.536432 30.155620 0.000000 0.000000 0.000000 2.359287 -56.223829 7.241812 -0.955525 -0.930656 -1.257043 12.725205 -0.978274 -3.049607 8.109763 0.044567 -5.218945 0.000000 0.000000 0.000000 8.593554 0.106136 -5.287671 -3.878913 4.398145 2.152562 0.000000 0.000000 0.000000 8.364478 0.017833 -5.780370 -5.958235 -15.684420 -4.742271 -28.596361 8.157509 -34.397444 1.238606 -41.895691 5.078055 0.000000 0.000000 0.000000 8.454774 0.630538 -5.358860 -5.230999 11.768088 5.578575 -36.498243 -28.791040 32.140350 -152.849047 75.358105 145.739735 0.000000 0.000000 0.000000 
-2.858467 83.377274 6.698643 0.000000 0.000000 0.000000 3.065453 -57.561699 7.451527 -38.015709 11.949429 25.960224 49.741051 -8.759390 -12.391554 -16.118101 -3.578344 -6.014457 0.000000 0.000000 0.000000 2.593194 -56.386528 6.827624 -30.136789 -6.527044 -35.239794 41.007793 6.204459 -6.163147 -18.754801 1.765988 31.135742 0.000000 0.000000 0.000000 2.571008 -56.647079 7.307563 -0.954640 -0.869456 -1.278108 12.646030 -1.083133 -3.198680 8.054497 -0.019896 -5.214729 0.000000 0.000000 0.000000 8.467829 0.075810 -5.262902 -3.683253 4.032867 2.268724 0.000000 0.000000 0.000000 8.234254 -0.032968 -5.760295 -6.205551 -15.689513 -5.404234 -28.906716 8.565379 -33.754501 1.971144 -43.184704 6.498128 0.000000 0.000000 0.000000 8.300628 0.594762 -5.371893 -5.300525 11.944157 6.636561 -36.060370 -27.450942 32.241590 -148.549252 78.348103 139.652110 0.000000 0.000000 0.000000 
-2.512929 83.463585 7.653431 0.000000 0.000000 0.000000 3.211025 -57.897936 7.464298 -37.760226 12.444105 25.209141 50.305163 -8.519111 -12.404767 -16.832801 -3.553385 -5.157914 0.000000 0.000000 0.000000 2.752408 -56.711669 6.837931 -29.442429 -6.831594 -36.049732 38.550196 6.423530 -5.827176 -17.368503 2.042435 32.084025 0.000000 0.000000 0.000000 2.777916 -57.043602 7.356176 -0.958094 -0.786128 -1.278950 12.558046 -1.162501 -3.368274 7.991352 -0.028511 -5.199861 0.000000 0.000000 0.000000 8.328105 0.097483 -5.218086 -3.461199 3.602233 2.349458 0.000000 0.000000 0.000000 8.084232 -0.030492 -5.714242 -6.469219 -15.671304 -6.079412 -29.223897 8.986120 -33.173730 2.811910 -44.714913 8.042904 0.000000 0.000000 0.000000 8.132196 0.608275 -5.368709 -5.438903 12.031019 7.835342 -35.804412 -25.896845 32.030059 -138.993393 81.418437 128.332247 0.000000 0.000000 0.000000 
-2.166739 83.564621 8.554832 0.000000 0.000000 0.000000 3.324032 -58.175487 7.442706 -37.494590 12.921372 24.480894 50.748401 -8.282748 -12.429586 -17.492442 -3.542531 -4.373816 0.000000 0.000000 0.000000 2.867171 -56.987127 6.804518 -28.682310 -7.214186 -36.803204 35.974098 6.580757 -5.476386 -15.906256 2.384546 32.979285 0.000000 0.000000 0.000000 2.941489 -57.358392 7.363768 -0.941434 -0.692013 -1.269558 12.451313 -1.206942 -3.549448 7.930574 0.019632 -5.174059 0.000000 0.000000 0.000000 8.186976 0.166719 -5.153850 -3.224382 3.113342 2.377050 0.000000 0.000000 0.000000 7.919608 0.025956 -5.645950 -6.732696 -15.681691 -6.776458 -29.668200 9.289628 -32.704804 3.646274 -46.206581 9.611218 0.000000 0.000000 0.000000 7.973667 0.668273 -5.346510 -5.646777 12.029561 9.166454 -35.697837 -24.244349 31.625436 -116.738260 83.983924 104.411196 0.000000 0.000000 0.000000 
-1.828351 83.682190 9.362507 0.000000 0.000000 0.000000 3.410944 -58.376835 7.395284 -37.246097 13.359479 23.809592 51.055463 -8.073895 -12.466284 -18.051466 -3.551947 -3.687043 0.000000 0.000000 0.000000 2.941079 -57.197893 6.735475 -27.878650 -7.672485 -37.484447 33.392276 6.671515 -5.124695 -14.410371 2.782564 33.800526 0.000000 0.000000 0.000000 3.037085 -57.558332 7.317317 -0.922384 -0.618950 -1.257662 12.326792 -1.212372 -3.724491 7.869630 0.114689 -5.144969 0.000000 0.000000 0.000000 8.045734 0.273622 -5.076468 -2.985036 2.579299 2.345602 0.000000 0.000000 0.000000 7.741657 0.129244 -5.563710 -6.981020 -15.739872 -7.479931 -30.300328 9.379778 -32.339860 4.328319 -47.490073 11.082118 0.000000 0.000000 0.000000 7.835343 0.763492 -5.309320 -5.916150 11.969397 10.612470 -35.635228 -22.566595 31.138600 -77.887700 84.568547 64.064155 0.000000 0.000000 0.000000 
